<?xml version="1.0" encoding="utf-8"?>
<!-- Generator: Adobe Illustrator 25.0.0, SVG Export Plug-In . SVG Version: 6.00 Build 0)  -->
<svg version="1.1" id="Layer_1" xmlns="http://www.w3.org/2000/svg" xmlns:xlink="http://www.w3.org/1999/xlink" x="0px" y="0px"
	 viewBox="0 0 24 24" style="enable-background:new 0 0 24 24;" xml:space="preserve">
<style type="text/css">
	.st0{clip-path:url(#SVGID_2_);}
	.st1{clip-path:url(#SVGID_4_);}
	.st2{clip-path:url(#SVGID_6_);fill:url(#SVGID_7_);}
	.st3{clip-path:url(#SVGID_9_);fill:url(#SVGID_10_);}
	.st4{clip-path:url(#SVGID_12_);fill:url(#SVGID_13_);}
	.st5{clip-path:url(#SVGID_15_);fill:url(#SVGID_16_);}
	.st6{clip-path:url(#SVGID_18_);fill:url(#SVGID_19_);}
	.st7{clip-path:url(#SVGID_21_);fill:url(#SVGID_22_);}
	.st8{clip-path:url(#SVGID_24_);fill:url(#SVGID_25_);}
	.st9{clip-path:url(#SVGID_27_);fill:url(#SVGID_28_);}
	.st10{clip-path:url(#SVGID_30_);fill-rule:evenodd;clip-rule:evenodd;fill:#007C9D;}
	.st11{clip-path:url(#SVGID_32_);fill:url(#SVGID_33_);}
	.st12{clip-path:url(#SVGID_35_);}
	.st13{clip-path:url(#SVGID_37_);}
	.st14{clip-path:url(#SVGID_39_);fill:url(#SVGID_40_);}
	.st15{clip-path:url(#SVGID_35_);fill:#FDB913;}
	.st16{clip-path:url(#SVGID_42_);}
	.st17{clip-path:url(#SVGID_44_);fill:url(#SVGID_45_);}
	.st18{clip-path:url(#SVGID_47_);fill:url(#SVGID_48_);}
	.st19{clip-path:url(#SVGID_50_);fill:url(#SVGID_51_);}
	.st20{clip-path:url(#SVGID_53_);fill:#6D6E71;}
	.st21{clip-path:url(#SVGID_53_);fill:#231F20;}
</style>
<g id="Artwork_55_1_">
	<g>
		<defs>
			<rect id="SVGID_1_" x="0.1" y="6.8" width="23.7" height="10.5"/>
		</defs>
		<clipPath id="SVGID_2_">
			<use xlink:href="#SVGID_1_"  style="overflow:visible;"/>
		</clipPath>
		<g class="st0">
			<defs>
				<rect id="SVGID_3_" x="0.1" y="6.8" width="23.7" height="10.5"/>
			</defs>
			<clipPath id="SVGID_4_">
				<use xlink:href="#SVGID_3_"  style="overflow:visible;"/>
			</clipPath>
			<g class="st1">
				<defs>
					<path id="SVGID_5_" d="M4.9,15.3c-0.2-0.2-0.2-0.4-0.2-0.6c0-0.2,0.1-0.5,0.2-0.6c0.2-0.2,0.4-0.3,0.7-0.3
						c0.3,0,0.5,0.1,0.7,0.3c0.2,0.2,0.2,0.4,0.2,0.6c0,0.2-0.1,0.5-0.2,0.6c-0.2,0.2-0.4,0.3-0.7,0.3C5.3,15.5,5.1,15.4,4.9,15.3
						 M4.7,13.8c-0.2,0.2-0.3,0.5-0.3,0.8c0,0.3,0.1,0.6,0.3,0.8c0.2,0.2,0.5,0.3,0.9,0.3c0.4,0,0.7-0.1,0.9-0.3
						c0.2-0.2,0.3-0.5,0.3-0.8c0-0.3-0.1-0.6-0.3-0.8c-0.2-0.2-0.5-0.3-0.9-0.3C5.2,13.5,4.9,13.6,4.7,13.8"/>
				</defs>
				<clipPath id="SVGID_6_">
					<use xlink:href="#SVGID_5_"  style="overflow:visible;"/>
				</clipPath>
				
					<linearGradient id="SVGID_7_" gradientUnits="userSpaceOnUse" x1="1.5782" y1="21.4393" x2="1.6187" y2="21.4393" gradientTransform="matrix(0 50.4604 50.4604 0 -1076.2362 -66.0522)">
					<stop  offset="0" style="stop-color:#057C9D"/>
					<stop  offset="0.1425" style="stop-color:#057C9D"/>
					<stop  offset="0.5209" style="stop-color:#105571"/>
					<stop  offset="1" style="stop-color:#105571"/>
				</linearGradient>
				<rect x="4.4" y="13.5" class="st2" width="2.4" height="2.2"/>
			</g>
			<g class="st1">
				<defs>
					<path id="SVGID_8_" d="M3.2,14v-0.4H3v2.1h0.2v-1.1c0-0.2,0.1-0.4,0.2-0.6c0.1-0.2,0.3-0.2,0.6-0.2c0.1,0,0.2,0,0.2,0l0,0v-0.2
						l0,0c-0.1,0-0.1,0-0.2,0C3.7,13.5,3.4,13.7,3.2,14"/>
				</defs>
				<clipPath id="SVGID_9_">
					<use xlink:href="#SVGID_8_"  style="overflow:visible;"/>
				</clipPath>
				
					<linearGradient id="SVGID_10_" gradientUnits="userSpaceOnUse" x1="1.6264" y1="22.3167" x2="1.6669" y2="22.3167" gradientTransform="matrix(0 49.0002 49.0002 0 -1089.8972 -66.1091)">
					<stop  offset="0" style="stop-color:#057C9D"/>
					<stop  offset="0.1425" style="stop-color:#057C9D"/>
					<stop  offset="0.5209" style="stop-color:#105571"/>
					<stop  offset="1" style="stop-color:#105571"/>
				</linearGradient>
				<rect x="3" y="13.5" class="st3" width="1.2" height="2.2"/>
			</g>
			<g class="st1">
				<defs>
					<path id="SVGID_11_" d="M0.4,13h1.2C1.8,13,1.9,13,2,13c0.2,0.1,0.3,0.3,0.3,0.5c0,0.4-0.2,0.6-0.7,0.6H0.4V13z M0.1,12.8v2.9
						h0.2v-1.3h1.3c0.3,0,0.5-0.1,0.7-0.2c0.1-0.1,0.2-0.3,0.2-0.6c0-0.5-0.3-0.8-0.9-0.8H0.1z"/>
				</defs>
				<clipPath id="SVGID_12_">
					<use xlink:href="#SVGID_11_"  style="overflow:visible;"/>
				</clipPath>
				
					<linearGradient id="SVGID_13_" gradientUnits="userSpaceOnUse" x1="1.4695" y1="23.5668" x2="1.51" y2="23.5668" gradientTransform="matrix(0 65.8887 65.8887 0 -1551.4365 -83.9638)">
					<stop  offset="0" style="stop-color:#057C9D"/>
					<stop  offset="0.1425" style="stop-color:#057C9D"/>
					<stop  offset="0.5209" style="stop-color:#105571"/>
					<stop  offset="1" style="stop-color:#105571"/>
				</linearGradient>
				<rect x="0.1" y="12.8" class="st4" width="2.4" height="2.9"/>
			</g>
			<g class="st1">
				<defs>
					<path id="SVGID_14_" d="M19.5,12.9v0.7H19v0.2h0.5v1.4c0,0.2,0,0.4,0.1,0.4c0.1,0.1,0.2,0.1,0.4,0.1c0.1,0,0.2,0,0.3,0l0,0
						v-0.2c0,0-0.3,0-0.3,0c-0.1,0-0.2,0-0.3,0c-0.1,0-0.1-0.1-0.1-0.2v-1.5h0.6v-0.2h-0.6v-0.7H19.5z"/>
				</defs>
				<clipPath id="SVGID_15_">
					<use xlink:href="#SVGID_14_"  style="overflow:visible;"/>
				</clipPath>
				
					<linearGradient id="SVGID_16_" gradientUnits="userSpaceOnUse" x1="1.4668" y1="16.786" x2="1.5073" y2="16.786" gradientTransform="matrix(0 64.1666 64.1666 0 -1057.4167 -81.1442)">
					<stop  offset="0" style="stop-color:#057C9D"/>
					<stop  offset="0.1425" style="stop-color:#057C9D"/>
					<stop  offset="0.5209" style="stop-color:#105571"/>
					<stop  offset="1" style="stop-color:#105571"/>
				</linearGradient>
				<rect x="19" y="12.9" class="st5" width="1.3" height="2.8"/>
			</g>
			<g class="st1">
				<defs>
					<rect id="SVGID_17_" x="18.4" y="12.8" width="0.2" height="2.9"/>
				</defs>
				<clipPath id="SVGID_18_">
					<use xlink:href="#SVGID_17_"  style="overflow:visible;"/>
				</clipPath>
				
					<linearGradient id="SVGID_19_" gradientUnits="userSpaceOnUse" x1="1.4695" y1="17.3817" x2="1.51" y2="17.3817" gradientTransform="matrix(0 65.8887 65.8887 0 -1126.7041 -83.9638)">
					<stop  offset="0" style="stop-color:#057C9D"/>
					<stop  offset="0.1425" style="stop-color:#057C9D"/>
					<stop  offset="0.5209" style="stop-color:#105571"/>
					<stop  offset="1" style="stop-color:#105571"/>
				</linearGradient>
				<rect x="18.4" y="12.8" class="st6" width="0.2" height="2.9"/>
			</g>
			<g class="st1">
				<defs>
					<path id="SVGID_20_" d="M16,15.1c0-0.2,0.2-0.4,0.6-0.4l0.7,0c0.1,0,0.2,0,0.3-0.1v0.3c0,0.2-0.1,0.4-0.3,0.5
						c-0.2,0.1-0.4,0.1-0.6,0.1C16.2,15.5,16,15.4,16,15.1 M16.1,13.7c-0.1,0.1-0.2,0.3-0.3,0.6l0,0H16l0,0c0-0.2,0.1-0.3,0.2-0.4
						c0.1-0.1,0.3-0.1,0.6-0.1c0.3,0,0.5,0,0.6,0.1c0.1,0.1,0.1,0.2,0.1,0.3c0,0.1,0,0.2-0.1,0.2c0,0-0.1,0-0.2,0.1l-0.7,0
						c-0.5,0-0.8,0.2-0.8,0.6c0,0.4,0.3,0.7,0.9,0.7c0.5,0,0.8-0.1,1-0.4c0,0.1,0,0.2,0,0.3c0,0.1,0.1,0.1,0.2,0.1
						c0.1,0,0.2,0,0.2,0l0,0v-0.2l0,0c-0.1,0-0.1,0-0.2,0c-0.1,0-0.1,0-0.1,0c0,0,0-0.1,0-0.2v-1.2c0-0.2-0.1-0.4-0.3-0.5
						c-0.2-0.1-0.4-0.1-0.7-0.1C16.5,13.5,16.2,13.6,16.1,13.7"/>
				</defs>
				<clipPath id="SVGID_21_">
					<use xlink:href="#SVGID_20_"  style="overflow:visible;"/>
				</clipPath>
				
					<linearGradient id="SVGID_22_" gradientUnits="userSpaceOnUse" x1="1.5782" y1="16.1338" x2="1.6187" y2="16.1338" gradientTransform="matrix(0 50.4604 50.4604 0 -797.2195 -66.0522)">
					<stop  offset="0" style="stop-color:#057C9D"/>
					<stop  offset="0.1425" style="stop-color:#057C9D"/>
					<stop  offset="0.5209" style="stop-color:#105571"/>
					<stop  offset="1" style="stop-color:#105571"/>
				</linearGradient>
				<rect x="15.7" y="13.5" class="st7" width="2.4" height="2.2"/>
			</g>
			<g class="st1">
				<defs>
					<polygon id="SVGID_23_" points="12.4,12.8 12.4,14 10.3,14 10.3,12.8 10,12.8 10,15.7 10.3,15.7 10.3,14.2 12.4,14.2 
						12.4,15.7 12.7,15.7 12.7,12.8 					"/>
				</defs>
				<clipPath id="SVGID_24_">
					<use xlink:href="#SVGID_23_"  style="overflow:visible;"/>
				</clipPath>
				
					<linearGradient id="SVGID_25_" gradientUnits="userSpaceOnUse" x1="1.4695" y1="19.974" x2="1.51" y2="19.974" gradientTransform="matrix(0 65.8887 65.8887 0 -1304.7153 -83.9638)">
					<stop  offset="0" style="stop-color:#057C9D"/>
					<stop  offset="0.1425" style="stop-color:#057C9D"/>
					<stop  offset="0.5209" style="stop-color:#105571"/>
					<stop  offset="1" style="stop-color:#105571"/>
				</linearGradient>
				<rect x="10" y="12.8" class="st8" width="2.6" height="2.9"/>
			</g>
			<g class="st1">
				<defs>
					<path id="SVGID_26_" d="M13.6,13.9c0.2-0.1,0.4-0.2,0.6-0.2c0.2,0,0.4,0.1,0.6,0.2c0.2,0.1,0.3,0.3,0.3,0.6h-1.8
						C13.3,14.3,13.4,14.1,13.6,13.9 M13.3,13.9c-0.2,0.2-0.3,0.4-0.3,0.7c0,0.3,0.1,0.6,0.3,0.8c0.2,0.2,0.5,0.3,0.9,0.3
						c0.6,0,0.9-0.3,1.1-0.8l0,0h-0.2l0,0c-0.2,0.4-0.4,0.6-0.9,0.6c-0.3,0-0.5-0.1-0.7-0.2c-0.2-0.2-0.2-0.4-0.3-0.6h2.1v0
						c0-0.3-0.1-0.6-0.3-0.8c-0.2-0.2-0.5-0.3-0.9-0.3C13.8,13.5,13.5,13.6,13.3,13.9"/>
				</defs>
				<clipPath id="SVGID_27_">
					<use xlink:href="#SVGID_26_"  style="overflow:visible;"/>
				</clipPath>
				
					<linearGradient id="SVGID_28_" gradientUnits="userSpaceOnUse" x1="1.5782" y1="17.3864" x2="1.6187" y2="17.3864" gradientTransform="matrix(0 50.4604 50.4604 0 -863.0936 -66.0522)">
					<stop  offset="0" style="stop-color:#057C9D"/>
					<stop  offset="0.1425" style="stop-color:#057C9D"/>
					<stop  offset="0.5209" style="stop-color:#105571"/>
					<stop  offset="1" style="stop-color:#105571"/>
				</linearGradient>
				<rect x="13.1" y="13.5" class="st9" width="2.3" height="2.2"/>
			</g>
			<g class="st1">
				<defs>
					<rect id="SVGID_29_" x="0.1" y="6.8" width="23.7" height="10.5"/>
				</defs>
				<clipPath id="SVGID_30_">
					<use xlink:href="#SVGID_29_"  style="overflow:visible;"/>
				</clipPath>
				<path class="st10" d="M14.8,9.4L14,11.7h0.5l0.2-0.5h0.8l0.2,0.5h0.5l-0.8-2.2H14.8z M14.8,10.8l0.3-0.8h0l0.3,0.8H14.8z
					 M17.7,10.3c-0.1-0.1-0.1-0.1-0.2-0.2c-0.1,0-0.2-0.1-0.3-0.1c-0.1,0-0.2,0-0.3,0.1c-0.1,0-0.2,0.1-0.2,0.2h0v-0.2h-0.4v2.7h0.4
					v-1.3h0c0.1,0.1,0.1,0.1,0.2,0.2c0.1,0,0.2,0.1,0.3,0.1c0.1,0,0.2,0,0.3-0.1c0.1,0,0.2-0.1,0.2-0.2c0.1-0.1,0.1-0.2,0.1-0.3
					c0-0.1,0-0.2,0-0.3c0-0.1,0-0.2,0-0.3C17.8,10.5,17.8,10.4,17.7,10.3 M17.4,11.1c0,0.1,0,0.1-0.1,0.2c0,0-0.1,0.1-0.1,0.1
					c0,0-0.1,0-0.2,0c-0.1,0-0.1,0-0.2,0c0,0-0.1-0.1-0.1-0.1c0,0-0.1-0.1-0.1-0.2c0-0.1,0-0.1,0-0.2c0-0.1,0-0.1,0-0.2
					c0-0.1,0-0.1,0.1-0.2c0,0,0.1-0.1,0.1-0.1c0,0,0.1,0,0.2,0c0.1,0,0.1,0,0.2,0c0.1,0,0.1,0.1,0.1,0.1c0,0,0.1,0.1,0.1,0.2
					c0,0.1,0,0.1,0,0.2C17.4,10.9,17.4,11,17.4,11.1 M19.4,10.3c-0.1-0.1-0.2-0.1-0.3-0.2C19.1,10,19,10,18.8,10
					c-0.1,0-0.2,0-0.3,0.1c-0.1,0-0.2,0.1-0.3,0.2c-0.1,0.1-0.1,0.2-0.2,0.3c0,0.1-0.1,0.2-0.1,0.4c0,0.1,0,0.2,0.1,0.4
					c0,0.1,0.1,0.2,0.2,0.3c0.1,0.1,0.2,0.1,0.3,0.2c0.1,0,0.2,0.1,0.3,0.1c0.1,0,0.2,0,0.3-0.1c0.1,0,0.2-0.1,0.3-0.2
					c0.1-0.1,0.1-0.2,0.2-0.3c0-0.1,0.1-0.2,0.1-0.4c0-0.1,0-0.2-0.1-0.4C19.6,10.4,19.5,10.3,19.4,10.3 M19.2,11.1
					c0,0.1,0,0.1-0.1,0.2c0,0-0.1,0.1-0.1,0.1c-0.1,0-0.1,0-0.2,0s-0.1,0-0.2,0c0,0-0.1-0.1-0.1-0.1c0,0-0.1-0.1-0.1-0.2
					c0-0.1,0-0.1,0-0.2c0-0.1,0-0.1,0-0.2c0-0.1,0-0.1,0.1-0.2c0,0,0.1-0.1,0.1-0.1c0.1,0,0.1,0,0.2,0s0.1,0,0.2,0
					c0.1,0,0.1,0.1,0.1,0.1c0,0,0.1,0.1,0.1,0.2c0,0.1,0,0.1,0,0.2C19.2,10.9,19.2,11,19.2,11.1 M19.8,11.7h0.4V9.4h-0.4V11.7z
					 M20.5,11.7H21V9.4h-0.4V11.7z M22.7,10.5c0-0.1-0.1-0.2-0.2-0.3c-0.1-0.1-0.2-0.1-0.3-0.2C22.2,10,22.1,10,22,10
					c-0.1,0-0.2,0-0.3,0.1c-0.1,0-0.2,0.1-0.3,0.2c-0.1,0.1-0.1,0.2-0.2,0.3c0,0.1-0.1,0.2-0.1,0.4c0,0.1,0,0.2,0.1,0.4
					c0,0.1,0.1,0.2,0.2,0.3c0.1,0.1,0.2,0.1,0.3,0.2c0.1,0,0.2,0.1,0.3,0.1c0.1,0,0.2,0,0.3-0.1c0.1,0,0.2-0.1,0.3-0.2
					c0.1-0.1,0.1-0.2,0.2-0.3c0-0.1,0.1-0.2,0.1-0.4C22.8,10.7,22.8,10.6,22.7,10.5 M22.3,11.1c0,0.1,0,0.1-0.1,0.2
					c0,0-0.1,0.1-0.1,0.1c-0.1,0-0.1,0-0.2,0c-0.1,0-0.1,0-0.2,0c-0.1,0-0.1-0.1-0.1-0.1c0,0-0.1-0.1-0.1-0.2c0-0.1,0-0.1,0-0.2
					c0-0.1,0-0.1,0-0.2c0-0.1,0-0.1,0.1-0.2c0,0,0.1-0.1,0.1-0.1c0.1,0,0.1,0,0.2,0c0.1,0,0.1,0,0.2,0c0.1,0,0.1,0.1,0.1,0.1
					c0,0,0.1,0.1,0.1,0.2c0,0.1,0,0.1,0,0.2C22.4,10.9,22.3,11,22.3,11.1"/>
			</g>
			<g class="st1">
				<defs>
					<path id="SVGID_31_" d="M20.7,12.8v2.9H21v-1.2c0-0.2,0.1-0.4,0.2-0.5c0.2-0.2,0.4-0.2,0.6-0.2c0.3,0,0.5,0.1,0.6,0.2
						c0.1,0.1,0.1,0.3,0.1,0.5v1.3h0.2v-1.3c0-0.2,0-0.4-0.1-0.5c-0.1-0.2-0.4-0.3-0.9-0.3c-0.4,0-0.7,0.1-0.9,0.4v-1.2H20.7z"/>
				</defs>
				<clipPath id="SVGID_32_">
					<use xlink:href="#SVGID_31_"  style="overflow:visible;"/>
				</clipPath>
				
					<linearGradient id="SVGID_33_" gradientUnits="userSpaceOnUse" x1="1.4695" y1="16.2247" x2="1.51" y2="16.2247" gradientTransform="matrix(0 65.8887 65.8887 0 -1047.2534 -83.9638)">
					<stop  offset="0" style="stop-color:#057C9D"/>
					<stop  offset="0.1425" style="stop-color:#057C9D"/>
					<stop  offset="0.5209" style="stop-color:#105571"/>
					<stop  offset="1" style="stop-color:#105571"/>
				</linearGradient>
				<rect x="20.7" y="12.8" class="st11" width="2.1" height="2.9"/>
			</g>
			<g class="st1">
				<defs>
					<rect id="SVGID_34_" x="0.1" y="6.8" width="23.7" height="10.5"/>
				</defs>
				<clipPath id="SVGID_35_">
					<use xlink:href="#SVGID_34_"  style="overflow:visible;"/>
				</clipPath>
				<g class="st12">
					<g>
						<defs>
							<rect id="SVGID_36_" x="6.4" y="9" width="0.8" height="0.9"/>
						</defs>
						<clipPath id="SVGID_37_">
							<use xlink:href="#SVGID_36_"  style="overflow:visible;"/>
						</clipPath>
						<g class="st13">
							<defs>
								<path id="SVGID_38_" d="M7.1,9.7C6.9,9.9,6.6,10,6.5,9.8C6.3,9.7,6.4,9.4,6.5,9.2C6.7,9,7,9,7.1,9.1
									C7.3,9.2,7.3,9.5,7.1,9.7"/>
							</defs>
							<clipPath id="SVGID_39_">
								<use xlink:href="#SVGID_38_"  style="overflow:visible;"/>
							</clipPath>
							
								<linearGradient id="SVGID_40_" gradientUnits="userSpaceOnUse" x1="4.8945" y1="25.696" x2="4.935" y2="25.696" gradientTransform="matrix(-42.3932 22.2313 23.9253 43.034 -400.1006 -1205.3391)">
								<stop  offset="0" style="stop-color:#F05347"/>
								<stop  offset="1" style="stop-color:#F47F5D"/>
							</linearGradient>
							<polygon class="st14" points="7.7,9.7 6.6,10.4 5.9,9.2 7.1,8.6 							"/>
						</g>
					</g>
				</g>
				<path class="st15" d="M5.8,9.6C5.8,9.5,5.8,9.5,5.8,9.6c0.1-0.5,0.7-0.7,1.1-0.8c0.8-0.4,1.4-1.1,1.6-2c0-0.1-0.1,0.7-1,1.2
					c-0.3,0.2-0.7,0.3-1,0.5C6.3,8.5,6.2,8.6,6.1,8.7C6,9,5.8,9.3,5.8,9.6"/>
				<g class="st12">
					<g>
						<defs>
							<rect id="SVGID_41_" x="5.7" y="8.7" width="3" height="7.3"/>
						</defs>
						<clipPath id="SVGID_42_">
							<use xlink:href="#SVGID_41_"  style="overflow:visible;"/>
						</clipPath>
						<g class="st16">
							<defs>
								<path id="SVGID_43_" d="M7.7,12.1c-1.4-1.4-1.9-2-1.8-2.5C5.8,9.3,6,9,6.1,8.7C5.8,9.1,5.6,9.6,5.7,10
									c0,0.6,0.4,1.1,0.8,1.6c0.4,0.5,0.9,0.9,1.3,1.4c0.3,0.4,1,1.2,0.1,3c0.5-0.5,0.7-1,0.7-1.7C8.7,13.5,8.5,12.9,7.7,12.1"/>
							</defs>
							<clipPath id="SVGID_44_">
								<use xlink:href="#SVGID_43_"  style="overflow:visible;"/>
							</clipPath>
							
								<linearGradient id="SVGID_45_" gradientUnits="userSpaceOnUse" x1="-1.6047" y1="22.4722" x2="-1.5642" y2="22.4722" gradientTransform="matrix(76.3074 4.165 4.165 -76.3074 34.4342 1733.7753)">
								<stop  offset="0" style="stop-color:#F05347"/>
								<stop  offset="1" style="stop-color:#F47F5D"/>
							</linearGradient>
							<polygon class="st17" points="5.7,8.5 9.2,8.7 8.8,16.2 5.2,16 							"/>
						</g>
					</g>
				</g>
			</g>
			<g class="st1">
				<defs>
					<path id="SVGID_46_" d="M6.4,10.5C6.2,10.7,6,11,5.9,11.4c-0.1,0.4,0.1,0.8,0.3,1.2c0.5,0.8,1.3,1.3,2,1.9
						c0.8,0.6,1.6,1.6,1.3,2.7c0,0,0,0,0,0h0c0,0,0.2-0.1,0.2-0.1c0.1-0.1,0.2-0.2,0.2-0.3c0.3-1-0.3-2-1-2.6
						C8,13.6,7,13.1,6.5,12.1c-0.2-0.4-0.4-1.1-0.1-1.5c0.1-0.2,0.3-0.4,0.5-0.5C6.7,10.2,6.6,10.3,6.4,10.5"/>
				</defs>
				<clipPath id="SVGID_47_">
					<use xlink:href="#SVGID_46_"  style="overflow:visible;"/>
				</clipPath>
				
					<linearGradient id="SVGID_48_" gradientUnits="userSpaceOnUse" x1="0.2233" y1="22.5519" x2="0.2638" y2="22.5519" gradientTransform="matrix(77.1676 114.5621 114.5621 -77.1676 -2594.4792 1725.8856)">
					<stop  offset="0" style="stop-color:#057C9D"/>
					<stop  offset="0.1425" style="stop-color:#057C9D"/>
					<stop  offset="0.5209" style="stop-color:#105571"/>
					<stop  offset="1" style="stop-color:#105571"/>
				</linearGradient>
				<polygon class="st18" points="8.8,8.1 13.5,15 7.2,19.2 2.5,12.3 				"/>
			</g>
			<g class="st1">
				<defs>
					<path id="SVGID_49_" d="M6.7,10.2c-0.2,0.2-0.3,0.4-0.4,0.6c0,0,0-0.1,0.1-0.1c0.4-0.4,1.1-0.5,1.7-0.5c0.6,0,1.2,0.2,1.8,0.3
						c0.4,0.1,0.8,0.1,1.3,0.1c0.2,0,0.4-0.1,0.6-0.3c0-0.1,0.1-0.1,0.1-0.2c-0.6,0.1-1.1,0-1.7,0C9.5,9.9,9,9.7,8.5,9.7
						c-0.1,0-0.1,0-0.2,0C7.7,9.7,7.1,9.9,6.7,10.2"/>
				</defs>
				<clipPath id="SVGID_50_">
					<use xlink:href="#SVGID_49_"  style="overflow:visible;"/>
				</clipPath>
				
					<linearGradient id="SVGID_51_" gradientUnits="userSpaceOnUse" x1="3.1248" y1="23.9536" x2="3.1653" y2="23.9536" gradientTransform="matrix(-79.8439 61.7814 61.7814 79.8439 -1219.6368 -2096.7024)">
					<stop  offset="0" style="stop-color:#057C9D"/>
					<stop  offset="0.1425" style="stop-color:#057C9D"/>
					<stop  offset="0.5209" style="stop-color:#244472"/>
					<stop  offset="1" style="stop-color:#244472"/>
				</linearGradient>
				<polygon class="st19" points="12.3,10.4 8.4,13.4 5.8,10.1 9.7,7.1 				"/>
			</g>
			<g class="st1">
				<defs>
					<rect id="SVGID_52_" x="0.1" y="6.8" width="23.7" height="10.5"/>
				</defs>
				<clipPath id="SVGID_53_">
					<use xlink:href="#SVGID_52_"  style="overflow:visible;"/>
				</clipPath>
				<path class="st20" d="M10.9,16.6C10.9,16.6,10.9,16.6,10.9,16.6c0.1,0.1,0.1,0.1,0.1,0.2c0,0,0,0.1,0,0.1s0,0.1-0.1,0.1
					c0,0-0.1,0-0.1,0h-0.2v0.3h-0.1v-0.7h0.3C10.8,16.5,10.8,16.6,10.9,16.6 M10.8,16.8C10.9,16.8,10.9,16.8,10.8,16.8
					c0-0.1,0-0.1,0-0.2c0,0,0,0,0,0c0,0,0,0-0.1,0h-0.2v0.3h0.2C10.8,16.9,10.8,16.9,10.8,16.8"/>
				<path class="st20" d="M11.3,16.7C11.3,16.7,11.3,16.7,11.3,16.7L11.3,16.7C11.3,16.8,11.3,16.8,11.3,16.7
					C11.3,16.8,11.3,16.8,11.3,16.7c-0.1,0.1-0.1,0.1-0.1,0.2v0.4h-0.1v-0.5h0.1l0,0.1C11.2,16.8,11.2,16.7,11.3,16.7
					C11.3,16.7,11.3,16.7,11.3,16.7C11.3,16.7,11.3,16.7,11.3,16.7"/>
				<path class="st20" d="M11.9,17h-0.3c0,0,0,0.1,0,0.1c0,0,0,0,0.1,0.1c0,0,0,0,0.1,0c0,0,0.1,0,0.1,0
					C11.8,17.1,11.8,17.1,11.9,17l0,0.1c0,0,0,0.1-0.1,0.1c0,0-0.1,0-0.1,0c0,0-0.1,0-0.1,0c0,0-0.1,0-0.1-0.1c0,0,0-0.1,0-0.1v0
					c0-0.1,0-0.1,0-0.1c0,0,0-0.1,0.1-0.1c0,0,0.1,0,0.1,0c0,0,0.1,0,0.1,0c0,0,0.1,0,0.1,0.1C11.9,16.9,11.9,16.9,11.9,17L11.9,17z
					 M11.8,16.9C11.8,16.9,11.8,16.8,11.8,16.9c-0.1-0.1-0.1-0.1-0.1-0.1c0,0-0.1,0-0.1,0c0,0,0,0.1,0,0.1L11.8,16.9L11.8,16.9z"/>
				<path class="st20" d="M12.4,16.5v0.7h-0.1l0-0.1c0,0-0.1,0.1-0.1,0.1c0,0-0.1,0-0.1,0c0,0-0.1-0.1-0.1-0.1c0,0,0-0.1,0-0.1v0
					c0-0.1,0-0.1,0-0.1c0,0,0-0.1,0.1-0.1c0,0,0.1,0,0.1,0c0.1,0,0.1,0,0.1,0.1L12.4,16.5L12.4,16.5z M12.3,17.1v-0.2c0,0,0,0,0-0.1
					c0,0,0,0-0.1,0c0,0-0.1,0-0.1,0c0,0,0,0,0,0.1c0,0,0,0.1,0,0.1v0c0,0,0,0.1,0,0.1c0,0,0,0,0,0.1c0,0,0,0,0.1,0
					C12.3,17.2,12.3,17.1,12.3,17.1"/>
				<path class="st20" d="M12.7,16.6C12.7,16.6,12.7,16.6,12.7,16.6C12.7,16.6,12.7,16.6,12.7,16.6C12.7,16.6,12.7,16.6,12.7,16.6
					C12.6,16.6,12.6,16.6,12.7,16.6C12.6,16.6,12.6,16.6,12.7,16.6C12.6,16.6,12.6,16.6,12.7,16.6C12.6,16.5,12.6,16.5,12.7,16.6
					C12.7,16.5,12.7,16.5,12.7,16.6 M12.6,16.7L12.6,16.7l0.1,0.5h-0.1V16.7z"/>
				<path class="st20" d="M13.3,17.1C13.3,17.1,13.3,17.1,13.3,17.1c0,0.1-0.1,0.1-0.1,0.1c0,0-0.1,0-0.1,0c0,0-0.1,0-0.1,0
					c0,0-0.1-0.1-0.1-0.1c0,0,0-0.1,0-0.1v0c0,0,0-0.1,0-0.1c0,0,0-0.1,0.1-0.1c0,0,0.1,0,0.1,0c0,0,0.1,0,0.1,0c0,0,0.1,0,0.1,0.1
					c0,0,0,0.1,0,0.1h-0.1c0,0,0,0,0-0.1c0,0,0,0,0,0c0,0,0,0-0.1,0c0,0-0.1,0-0.1,0c0,0,0,0,0,0.1c0,0,0,0.1,0,0.1v0
					c0,0.1,0,0.1,0,0.1c0,0,0.1,0.1,0.1,0.1c0,0,0,0,0.1,0c0,0,0,0,0,0C13.2,17.1,13.2,17.1,13.3,17.1L13.3,17.1z"/>
				<path class="st20" d="M13.6,17.2C13.6,17.2,13.6,17.2,13.6,17.2c-0.1,0-0.1,0-0.2,0c0,0,0-0.1,0-0.1v-0.3h-0.1v-0.1h0.1v-0.1
					h0.1v0.1h0.1v0.1h-0.1v0.3C13.5,17.1,13.5,17.1,13.6,17.2C13.6,17.2,13.6,17.2,13.6,17.2C13.6,17.2,13.6,17.2,13.6,17.2
					C13.6,17.2,13.6,17.2,13.6,17.2L13.6,17.2z"/>
				<path class="st20" d="M13.9,17.1C13.9,17.2,13.9,17.2,13.9,17.1C13.9,17.2,13.9,17.2,13.9,17.1C13.8,17.2,13.8,17.2,13.9,17.1
					C13.8,17.2,13.8,17.2,13.9,17.1C13.8,17.2,13.8,17.2,13.9,17.1C13.8,17.2,13.8,17.2,13.9,17.1C13.8,17.1,13.8,17.1,13.9,17.1
					C13.8,17.1,13.8,17.1,13.9,17.1"/>
				<path class="st20" d="M14.7,16.6C14.8,16.6,14.8,16.6,14.7,16.6c0.1,0.1,0.1,0.1,0.1,0.2c0,0,0,0.1,0,0.1c0,0,0,0.1-0.1,0.1
					c0,0-0.1,0-0.1,0h-0.2v0.3h-0.1v-0.7h0.3C14.6,16.5,14.7,16.6,14.7,16.6 M14.7,16.8C14.7,16.8,14.7,16.8,14.7,16.8
					c0-0.1,0-0.1,0-0.2c0,0,0,0,0,0c0,0,0,0-0.1,0h-0.2v0.3h0.2C14.6,16.9,14.7,16.9,14.7,16.8"/>
				<path class="st20" d="M15.2,16.7C15.2,16.7,15.2,16.7,15.2,16.7L15.2,16.7C15.2,16.8,15.2,16.8,15.2,16.7
					C15.1,16.8,15.1,16.8,15.2,16.7c-0.1,0.1-0.1,0.1-0.1,0.2v0.4H15v-0.5H15l0,0.1C15.1,16.8,15.1,16.7,15.2,16.7
					C15.1,16.7,15.1,16.7,15.2,16.7C15.2,16.7,15.2,16.7,15.2,16.7"/>
				<path class="st20" d="M15.7,17h-0.3c0,0,0,0.1,0,0.1c0,0,0,0,0.1,0.1c0,0,0,0,0.1,0c0,0,0.1,0,0.1,0
					C15.6,17.1,15.6,17.1,15.7,17l0,0.1c0,0,0,0.1-0.1,0.1c0,0-0.1,0-0.1,0c0,0-0.1,0-0.1,0c0,0-0.1,0-0.1-0.1c0,0,0-0.1,0-0.1v0
					c0-0.1,0-0.1,0-0.1c0,0,0-0.1,0.1-0.1c0,0,0.1,0,0.1,0c0,0,0.1,0,0.1,0c0,0,0.1,0,0.1,0.1C15.7,16.9,15.7,16.9,15.7,17L15.7,17z
					 M15.6,16.9C15.6,16.9,15.6,16.8,15.6,16.9c-0.1-0.1-0.1-0.1-0.1-0.1c0,0-0.1,0-0.1,0s0,0.1,0,0.1L15.6,16.9L15.6,16.9z"/>
				<polygon class="st20" points="16.2,16.7 16,17.2 16,17.2 16,17.2 15.8,16.7 15.9,16.7 16,17.1 16.1,16.7 				"/>
				<path class="st20" d="M16.7,17h-0.3c0,0,0,0.1,0,0.1c0,0,0,0,0.1,0.1c0,0,0,0,0.1,0c0,0,0.1,0,0.1,0
					C16.6,17.1,16.6,17.1,16.7,17l0,0.1c0,0,0,0.1-0.1,0.1c0,0-0.1,0-0.1,0c0,0-0.1,0-0.1,0c0,0-0.1,0-0.1-0.1c0,0,0-0.1,0-0.1v0
					c0-0.1,0-0.1,0-0.1c0,0,0-0.1,0.1-0.1c0,0,0.1,0,0.1,0c0,0,0.1,0,0.1,0c0,0,0.1,0,0.1,0.1C16.7,16.9,16.7,16.9,16.7,17L16.7,17z
					 M16.6,16.9C16.6,16.9,16.6,16.8,16.6,16.9c-0.1-0.1-0.1-0.1-0.1-0.1c0,0-0.1,0-0.1,0s0,0.1,0,0.1L16.6,16.9L16.6,16.9z"/>
				<path class="st20" d="M17.2,16.9v0.3h-0.1L17.2,16.9c-0.1,0-0.1-0.1-0.1-0.1c0,0,0,0-0.1,0c0,0-0.1,0-0.1,0c0,0,0,0-0.1,0.1v0.4
					h-0.1v-0.5h0.1l0,0.1c0,0,0,0,0.1-0.1c0,0,0.1,0,0.1,0C17.2,16.7,17.2,16.8,17.2,16.9"/>
				<path class="st20" d="M17.6,17.2C17.6,17.2,17.5,17.2,17.6,17.2c-0.1,0-0.1,0-0.2,0c0,0,0-0.1,0-0.1v-0.3h-0.1v-0.1h0.1v-0.1
					h0.1v0.1h0.1v0.1h-0.1v0.3C17.5,17.1,17.5,17.1,17.6,17.2C17.5,17.2,17.5,17.2,17.6,17.2C17.6,17.2,17.6,17.2,17.6,17.2
					C17.6,17.2,17.6,17.2,17.6,17.2L17.6,17.2z"/>
				<path class="st20" d="M17.8,17.1C17.8,17.2,17.8,17.2,17.8,17.1C17.8,17.2,17.8,17.2,17.8,17.1C17.8,17.2,17.8,17.2,17.8,17.1
					C17.7,17.2,17.7,17.2,17.8,17.1C17.7,17.2,17.7,17.2,17.8,17.1C17.7,17.2,17.7,17.2,17.8,17.1C17.7,17.1,17.7,17.1,17.8,17.1
					C17.8,17.1,17.8,17.1,17.8,17.1"/>
				<path class="st20" d="M18.7,17.1c0,0-0.1,0.1-0.1,0.1c0,0-0.1,0-0.1,0c-0.1,0-0.1,0-0.1,0c0,0-0.1-0.1-0.1-0.1c0,0,0-0.1,0-0.2
					v0c0-0.1,0-0.1,0-0.2c0,0,0.1-0.1,0.1-0.1c0,0,0.1,0,0.1,0c0.1,0,0.1,0,0.1,0c0,0,0.1,0.1,0.1,0.1c0,0,0,0.1,0,0.2v0
					C18.8,17,18.8,17,18.7,17.1 M18.7,16.7C18.7,16.7,18.6,16.7,18.7,16.7c-0.1-0.1-0.1-0.1-0.2-0.1c0,0-0.1,0-0.1,0
					c0,0,0,0-0.1,0.1c0,0,0,0.1,0,0.1v0c0,0.1,0,0.1,0,0.1c0,0,0,0.1,0.1,0.1c0,0,0.1,0,0.1,0c0.1,0,0.1,0,0.1-0.1c0,0,0-0.1,0-0.2
					v0C18.7,16.8,18.7,16.8,18.7,16.7"/>
				<polygon class="st20" points="19.3,16.7 19.1,17.2 19.1,17.2 19.1,17.2 18.9,16.7 19,16.7 19.1,17.1 19.2,16.7 				"/>
				<path class="st20" d="M19.8,17h-0.3c0,0,0,0.1,0,0.1c0,0,0,0,0.1,0.1c0,0,0,0,0.1,0c0,0,0.1,0,0.1,0
					C19.7,17.1,19.7,17.1,19.8,17l0,0.1c0,0,0,0.1-0.1,0.1c0,0-0.1,0-0.1,0c0,0-0.1,0-0.1,0c0,0-0.1,0-0.1-0.1c0,0,0-0.1,0-0.1v0
					c0-0.1,0-0.1,0-0.1c0,0,0-0.1,0.1-0.1c0,0,0.1,0,0.1,0c0,0,0.1,0,0.1,0c0,0,0.1,0,0.1,0.1C19.8,16.9,19.8,16.9,19.8,17L19.8,17z
					 M19.7,16.9C19.7,16.9,19.7,16.8,19.7,16.9c-0.1-0.1-0.1-0.1-0.1-0.1c0,0-0.1,0-0.1,0c0,0,0,0.1,0,0.1L19.7,16.9L19.7,16.9z"/>
				<path class="st20" d="M20.2,16.7C20.2,16.7,20.2,16.7,20.2,16.7L20.2,16.7C20.2,16.8,20.1,16.8,20.2,16.7
					C20.1,16.8,20.1,16.8,20.2,16.7C20,16.8,20,16.8,20,16.9v0.4h-0.1v-0.5H20l0,0.1C20,16.8,20,16.7,20.2,16.7
					C20.1,16.7,20.1,16.7,20.2,16.7C20.1,16.7,20.1,16.7,20.2,16.7"/>
				<path class="st20" d="M20.7,17.1C20.7,17.1,20.7,17.1,20.7,17.1c0,0.1-0.1,0.1-0.1,0.1c0,0-0.1,0-0.1,0c0,0-0.1,0-0.1,0
					c0,0-0.1-0.1-0.1-0.1c0,0,0-0.1,0-0.1v0c0,0,0-0.1,0-0.1c0,0,0-0.1,0.1-0.1c0,0,0.1,0,0.1,0c0,0,0.1,0,0.1,0c0,0,0.1,0,0.1,0.1
					c0,0,0,0.1,0,0.1h-0.1c0,0,0,0,0-0.1c0,0,0,0,0,0c0,0,0,0-0.1,0c0,0-0.1,0-0.1,0c0,0,0,0,0,0.1c0,0,0,0.1,0,0.1v0
					c0,0.1,0,0.1,0,0.1c0,0,0.1,0.1,0.1,0.1c0,0,0,0,0.1,0c0,0,0,0,0,0C20.6,17.1,20.6,17.1,20.7,17.1L20.7,17.1z"/>
				<path class="st20" d="M20.8,16.8C20.8,16.8,20.8,16.8,20.8,16.8c0.1-0.1,0.2-0.1,0.2-0.1c0,0,0.1,0,0.1,0c0,0,0.1,0.1,0.1,0.1
					c0,0,0,0.1,0,0.1v0c0,0,0,0.1,0,0.1c0,0,0,0.1-0.1,0.1c0,0-0.1,0-0.1,0c0,0-0.1,0-0.1,0c0,0-0.1-0.1-0.1-0.1c0,0,0-0.1,0-0.1v0
					C20.8,16.9,20.8,16.9,20.8,16.8 M20.9,17.1C20.9,17.1,20.9,17.1,20.9,17.1c0.1,0.1,0.1,0.1,0.1,0.1c0,0,0.1,0,0.1,0
					c0,0,0,0,0-0.1c0,0,0-0.1,0-0.1v0c0,0,0-0.1,0-0.1c0,0,0-0.1,0-0.1c0,0,0,0-0.1,0c0,0-0.1,0-0.1,0c0,0,0,0,0,0.1
					c0,0,0,0.1,0,0.1L20.9,17.1C20.8,17,20.9,17,20.9,17.1"/>
				<path class="st20" d="M22,16.8c0,0,0,0.1,0,0.1v0.3H22v-0.3C22,16.9,22,16.8,22,16.8c-0.1,0-0.1,0-0.2,0c0,0,0,0-0.1,0
					c0,0,0,0,0,0c0,0,0,0,0,0.1v0.3h-0.1v-0.3c0-0.1,0-0.1-0.1-0.1c0,0-0.1,0-0.1,0c0,0,0,0,0,0.1v0.4h-0.1v-0.5h0.1l0,0.1
					c0,0,0,0,0.1,0c0,0,0.1,0,0.1,0c0,0,0.1,0,0.1,0c0,0,0,0,0.1,0.1c0,0,0,0,0.1-0.1c0,0,0.1,0,0.1,0C21.9,16.7,22,16.7,22,16.8"/>
				<path class="st20" d="M22.6,17h-0.3c0,0,0,0.1,0,0.1c0,0,0,0,0.1,0.1c0,0,0,0,0.1,0c0,0,0.1,0,0.1,0
					C22.5,17.1,22.5,17.1,22.6,17l0,0.1c0,0,0,0.1-0.1,0.1c0,0-0.1,0-0.1,0c0,0-0.1,0-0.1,0c0,0-0.1,0-0.1-0.1c0,0,0-0.1,0-0.1v0
					c0-0.1,0-0.1,0-0.1c0,0,0-0.1,0.1-0.1c0,0,0.1,0,0.1,0c0,0,0.1,0,0.1,0c0,0,0.1,0,0.1,0.1C22.6,16.9,22.6,16.9,22.6,17L22.6,17z
					 M22.5,16.9C22.5,16.9,22.5,16.8,22.5,16.9c-0.1-0.1-0.1-0.1-0.1-0.1c0,0-0.1,0-0.1,0c0,0,0,0.1,0,0.1L22.5,16.9L22.5,16.9z"/>
				<path class="st20" d="M22.8,17.1C22.8,17.2,22.8,17.2,22.8,17.1C22.8,17.2,22.8,17.2,22.8,17.1C22.8,17.2,22.8,17.2,22.8,17.1
					C22.8,17.2,22.8,17.2,22.8,17.1C22.7,17.2,22.7,17.2,22.8,17.1C22.7,17.2,22.7,17.2,22.8,17.1C22.8,17.1,22.8,17.1,22.8,17.1
					C22.8,17.1,22.8,17.1,22.8,17.1"/>
				<path class="st21" d="M23,13.5L23,13.5C23.1,13.5,23.1,13.5,23,13.5c0.1,0.1,0.1,0.1,0.1,0.1c0,0,0,0,0.1,0c0,0,0,0,0.1,0
					c0,0,0,0,0,0c0,0,0,0,0,0c0,0,0,0,0,0c0,0,0,0,0,0c0,0,0,0-0.1,0C23.1,13.4,23.1,13.4,23,13.5c0.1-0.1,0-0.1,0-0.1
					c0,0,0,0,0-0.1c0,0,0,0,0-0.1c0,0,0,0,0.1,0c0,0,0.1,0,0.1,0c0,0,0.1,0,0.1,0c0,0,0,0,0.1,0c0,0,0,0,0,0.1l-0.1,0c0,0,0,0,0-0.1
					c0,0,0,0-0.1,0c0,0-0.1,0-0.1,0c0,0,0,0,0,0c0,0,0,0,0,0c0,0,0,0,0.1,0c0,0,0.1,0,0.1,0c0,0,0,0,0.1,0c0,0,0,0,0,0.1
					c0,0,0,0,0,0.1c0,0,0,0-0.1,0c0,0-0.1,0-0.1,0c0,0-0.1,0-0.1,0C23.1,13.6,23.1,13.6,23,13.5C23,13.6,23,13.5,23,13.5"/>
				<path class="st21" d="M23.4,13.7v-0.4h0.1l0.1,0.3c0,0,0,0.1,0,0.1c0,0,0,0,0-0.1l0.1-0.3h0.1v0.4h-0.1v-0.4l-0.1,0.4h-0.1
					l-0.1-0.4L23.4,13.7L23.4,13.7z"/>
			</g>
		</g>
	</g>
</g>
</svg>
